<?xml version="1.0" encoding="UTF-8"?>
<svg width="31px" height="32px" viewBox="0 0 31 32" version="1.1" xmlns="http://www.w3.org/2000/svg" xmlns:xlink="http://www.w3.org/1999/xlink">
    <!-- Generator: Sketch 52 (66869) - http://www.bohemiancoding.com/sketch -->
    <title>281257_Shapes_R</title>
    <desc>Created with Sketch.</desc>
    <defs>
        <path d="M0,14.6806835 L6.97678872,14.6806835 L6.97678872,17.5689309 L0.375172414,17.5689309 L0.375172414,30.7718412 L13.5780827,30.7718412 L13.5780827,24.5002735 L15.4832753,24.5002735 L19.2791563,31.1018898 L26.9228108,31.1018898 L30.9085342,24.1705472 L26.9228108,17.23856 L23.4805072,17.23856 L23.4805072,13.9377519 L22.8200877,13.9377519 L22.8200877,17.23856 L19.2791563,17.23856 L15.4832753,23.8401763 L13.5780827,23.8401763 L13.5780827,17.5689309 L7.63656357,17.5689309 L7.63656357,14.6806835 L14.6133523,14.6806835 L7.30651499,0.423809456 L0,14.6806835 Z M7.30651499,1.87131745 L13.5332812,14.0205863 L1.0800711,14.0205863 L7.30651499,1.87131745 Z M16.0550587,24.1705472 L19.6610973,17.8989795 L26.5408698,17.8989795 L30.1469084,24.1705472 L26.5408698,30.4417926 L19.6610973,30.4417926 L16.0550587,24.1705472 Z M1.03526958,30.1120664 L12.9179855,30.1120664 L12.9179855,18.2290281 L1.03526958,18.2290281 L1.03526958,30.1120664 Z" id="path-1"></path>
        <path d="M10.9877493,1.13634696 C9.91960374,0.518150492 8.67998768,0.162639175 7.35689252,0.162639175 C6.03379737,0.162639175 4.79450361,0.518150492 3.72603579,1.13634696 C1.5562242,2.39207868 0.0951790497,4.73690627 0.0951790497,7.42403034 C0.0951790497,10.1114767 1.5562242,12.455982 3.72603579,13.712036 C4.79450361,14.3302325 6.03379737,14.6857438 7.35689252,14.6857438 C8.67998768,14.6857438 9.91960374,14.3302325 10.9877493,13.712036 C13.1575608,12.455982 14.618606,10.1114767 14.618606,7.42403034 C14.618606,4.73690627 13.1575608,2.39207868 10.9877493,1.13634696" id="path-3"></path>
    </defs>
    <g id="HiFi" stroke="none" stroke-width="1" fill="none" fill-rule="evenodd">
        <g id="InvoicePolicyBuilder_HiFi_2.1_Question_LG" transform="translate(-227.000000, -105.000000)">
            <g id="page">
                <g id=".ab__framework.ab__question_screen" transform="translate(0.000000, 77.000000)">
                    <g id=".ab__context">
                        <g id=".ab__tool_title" transform="translate(227.000000, 28.000000)">
                            <g id="business-technology/charts-graphs/bar-chart">
                                <g id="281257_Shapes_R">
                                    <g id="line-mask">
                                        <mask id="mask-2" fill="white">
                                            <use xlink:href="#path-1"></use>
                                        </mask>
                                        <use id="Mask" fill="#000000" xlink:href="#path-1"></use>
                                        <g id="colors/lines/black" mask="url(#mask-2)" fill="#000000">
                                            <g transform="translate(-3.126437, -3.126437)" id="color">
                                                <rect x="0" y="0" width="38" height="38"></rect>
                                            </g>
                                        </g>
                                    </g>
                                    <g id="Group-10" transform="translate(15.793340, 0.159867)">
                                        <g id="gradient-mask">
                                            <mask id="mask-4" fill="white">
                                                <use xlink:href="#path-3"></use>
                                            </mask>
                                            <use id="Mask" fill="#008FD3" xlink:href="#path-3"></use>
                                            <g id="colors/sap-blue" mask="url(#mask-4)" fill="#008FD3">
                                                <g transform="translate(-18.919777, -3.286304)" id="color">
                                                    <rect x="0" y="0" width="38" height="38"></rect>
                                                </g>
                                            </g>
                                        </g>
                                        <path d="M10.9877493,1.13634696 C9.91960374,0.518150492 8.67998768,0.162639175 7.35689252,0.162639175 L7.35689252,14.6857438 C8.67998768,14.6857438 9.91960374,14.3302325 10.9877493,13.712036 L10.9877493,1.13634696 Z" id="Fill-4" fill-opacity="0.4" fill="#F0AB00"></path>
                                        <path d="M3.72613248,1.13634696 L3.72613248,13.712036 C4.79460031,14.3302325 6.03389406,14.6857438 7.35698922,14.6857438 L7.35698922,0.162639175 C6.03389406,0.162639175 4.79460031,0.518150492 3.72613248,1.13634696" id="Fill-6" fill-opacity="0.7" fill="#F0AB00"></path>
                                        <path d="M3.72613248,13.7119071 L3.72613248,1.13621804 C1.55632089,2.39194976 0.0952757436,4.73677734 0.0952757436,7.42390141 C0.0952757436,10.1113478 1.55632089,12.4561754 3.72613248,13.7119071" id="Fill-8" fill="#F0AB00"></path>
                                    </g>
                                </g>
                            </g>
                        </g>
                    </g>
                </g>
            </g>
        </g>
    </g>
</svg>