<?xml version="1.0" encoding="UTF-8"?>
<svg width="45px" height="45px" viewBox="0 0 45 45" version="1.1" xmlns="http://www.w3.org/2000/svg" xmlns:xlink="http://www.w3.org/1999/xlink">
    <!-- Generator: Sketch 51.2 (57519) - http://www.bohemiancoding.com/sketch -->
    <title>clock-icon</title>
    <desc>Created with Sketch.</desc>
    <defs>
        <path d="M18.8985082,15.1860082 C18.4343234,13.4535082 17.8407636,12.0208451 16.9439429,10.4673668 C16.0471223,8.91388859 15.1031005,7.68372554 13.8345408,6.41541033 C12.5662255,5.14685054 11.3360625,4.20307337 9.78258424,3.30600815 C8.22935054,2.4091875 6.79644293,1.81562772 5.06394293,1.3516875 C3.33119837,0.887013587 1.79386141,0.684758152 -2.44565217e-05,0.684758152 L-2.44565217e-05,18.7825842 C0.267285326,18.7825842 0.517230978,18.8552201 0.733182065,18.9801929 C0.955736413,19.1090788 1.14111685,19.2942147 1.26975815,19.516769 C1.39473098,19.7327201 1.46736685,19.9824212 1.46736685,20.2499755 C1.46736685,20.5175299 1.39473098,20.767231 1.26975815,20.9831821 L16.9439429,30.0325842 C17.8407636,28.479106 18.4343234,27.0464429 18.8985082,25.3139429 C19.3626929,23.5811984 19.5651929,22.0438614 19.5651929,20.2499755 C19.5651929,18.4560897 19.3626929,16.9187527 18.8985082,15.1860082" id="path-1"></path>
        <path d="M22.5,23.4782609 C21.9604891,23.4782609 21.5217391,23.0395109 21.5217391,22.5 C21.5217391,21.9604891 21.9604891,21.5217391 22.5,21.5217391 C23.0395109,21.5217391 23.4782609,21.9604891 23.4782609,22.5 C23.4782609,23.0395109 23.0395109,23.4782609 22.5,23.4782609 Z M23.4919565,20.816413 C23.2006793,20.6442391 22.8622011,20.5434783 22.5,20.5434783 C22.1377989,20.5434783 21.7993207,20.6442391 21.5080435,20.816413 L15.4438043,14.7521739 L14.7521739,15.4438043 L20.816413,21.5080435 C20.6442391,21.7995652 20.5434783,22.1377989 20.5434783,22.5 C20.5434783,23.5787772 21.4212228,24.4565217 22.5,24.4565217 C23.5787772,24.4565217 24.4565217,23.5787772 24.4565217,22.5 C24.4565217,22.1377989 24.3557609,21.7995652 24.183587,21.5080435 L34.837337,10.8542935 L34.1457065,10.162663 L23.4919565,20.816413 Z M14.7394565,34.9635326 L15.5866304,35.452663 L13.1409783,39.6885326 L12.2938043,39.1994022 L14.7394565,34.9635326 Z M30.2605435,10.0364674 L29.4133696,9.54733696 L31.8590217,5.31146739 L32.7061957,5.80059783 L30.2605435,10.0364674 Z M35.4524185,29.4133696 L39.6885326,31.8590217 L39.1994022,32.7061957 L34.963288,30.2605435 L35.4524185,29.4133696 Z M5.80059783,12.2938043 L10.036712,14.7394565 L9.54758152,15.5866304 L5.31146739,13.1409783 L5.80059783,12.2938043 Z M9.54758152,29.4133696 L10.036712,30.2605435 L5.80059783,32.7061957 L5.31146739,31.8590217 L9.54758152,29.4133696 Z M35.4524185,15.5866304 L34.963288,14.7394565 L39.1994022,12.2938043 L39.6885326,13.1409783 L35.4524185,15.5866304 Z M30.2605435,34.9635326 L32.7061957,39.1994022 L31.8590217,39.6885326 L29.4133696,35.452663 L30.2605435,34.9635326 Z M14.7394565,10.0364674 L12.2938043,5.80059783 L13.1409783,5.31146739 L15.5866304,9.54733696 L14.7394565,10.0364674 Z M2.93478261,22.9891304 L7.82608696,22.9891304 L7.82608696,22.0108696 L2.93478261,22.0108696 L2.93478261,22.9891304 Z M37.173913,22.9891304 L42.0652174,22.9891304 L42.0652174,22.0108696 L37.173913,22.0108696 L37.173913,22.9891304 Z M22.0108696,42.0652174 L22.9891304,42.0652174 L22.9891304,37.173913 L22.0108696,37.173913 L22.0108696,42.0652174 Z M22.0108696,7.82608696 L22.9891304,7.82608696 L22.9891304,2.93478261 L22.0108696,2.93478261 L22.0108696,7.82608696 Z M22.5,44.0217391 C10.632962,44.0217391 0.97826087,34.367038 0.97826087,22.5 C0.97826087,10.632962 10.632962,0.97826087 22.5,0.97826087 C34.367038,0.97826087 44.0217391,10.632962 44.0217391,22.5 C44.0217391,34.367038 34.367038,44.0217391 22.5,44.0217391 Z M22.5,0 C10.0934511,0 0,10.0934511 0,22.5 C0,34.9065489 10.0934511,45 22.5,45 C34.9065489,45 45,34.9065489 45,22.5 C45,10.0934511 34.9065489,0 22.5,0 Z" id="path-3"></path>
    </defs>
    <g id="HiFi" stroke="none" stroke-width="1" fill="none" fill-rule="evenodd">
        <g id="TEMAssessment_HiFi_2.1.1_QuestionContent_LG" transform="translate(-735.000000, -391.000000)">
            <g id="page">
                <g id="#main" transform="translate(716.000000, 187.000000)">
                    <g id="content" transform="translate(0.000000, 62.000000)">
                        <g id=".callout" transform="translate(0.000000, 116.000000)">
                            <g id="clock-icon" transform="translate(19.000000, 26.000000)">
                                <g id="Group-11">
                                    <g id="color-mask" transform="translate(22.500000, 2.250000)">
                                        <mask id="mask-2" fill="white">
                                            <use xlink:href="#path-1"></use>
                                        </mask>
                                        <use id="Mask" fill="#008FD3" xlink:href="#path-1"></use>
                                        <g id="colors/sap-blue" mask="url(#mask-2)" fill="#008FD3">
                                            <g transform="translate(-27.000000, -6.750000)" id="color">
                                                <rect x="0" y="0" width="54" height="54"></rect>
                                            </g>
                                        </g>
                                    </g>
                                    <path d="M23.9673913,22.5 C23.9673913,22.7675543 23.8947554,23.0172554 23.7697826,23.2332065 L39.4439674,32.2826087 C40.340788,30.7291304 40.9343478,29.2964674 41.3985326,27.5639674 C41.8627174,25.8312228 42.0652174,24.2938859 42.0652174,22.5 L23.9673913,22.5 Z" id="Fill-3" fill="#F0AB00"></path>
                                    <path d="M41.3985082,17.4360082 C40.9343234,15.7035082 40.3407636,14.2708451 39.4439429,12.7173668 L23.7697582,21.766769 C23.894731,21.9827201 23.9673668,22.2324212 23.9673668,22.4999755 L42.0651929,22.4999755 C42.0651929,20.7060897 41.8626929,19.1687527 41.3985082,17.4360082" id="Fill-5" fill="#F0AB00" opacity="0.699999988"></path>
                                    <path d="M23.7697582,21.7667935 L39.4439429,12.7173913 C38.5471223,11.163913 37.6031005,9.93375 36.3345408,8.66543478 C35.0662255,7.396875 33.8360625,6.45309783 32.2825842,5.55603261 L23.2331821,21.2302174 C23.4557364,21.3591033 23.6411168,21.5442391 23.7697582,21.7667935" id="Fill-7" fill="#F0AB00" opacity="0.400000006"></path>
                                    <g id="line-mask">
                                        <mask id="mask-4" fill="white">
                                            <use xlink:href="#path-3"></use>
                                        </mask>
                                        <use id="Mask" fill="#000000" xlink:href="#path-3"></use>
                                        <g id="colors/lines/black" mask="url(#mask-4)" fill="#000000">
                                            <g transform="translate(-4.500000, -4.500000)" id="color">
                                                <rect x="0" y="0" width="54" height="54"></rect>
                                            </g>
                                        </g>
                                    </g>
                                </g>
                            </g>
                        </g>
                    </g>
                </g>
            </g>
        </g>
    </g>
</svg>