<?xml version="1.0" encoding="UTF-8"?>
<svg width="32px" height="33px" viewBox="0 0 32 33" version="1.1" xmlns="http://www.w3.org/2000/svg" xmlns:xlink="http://www.w3.org/1999/xlink">
    <!-- Generator: Sketch 52.5 (67469) - http://www.bohemiancoding.com/sketch -->
    <title>282165_StatisticalSignificance_C</title>
    <desc>Created with Sketch.</desc>
    <g id="HiFi-(US)" stroke="none" stroke-width="1" fill="none" fill-rule="evenodd">
        <g id="InvoicePainpointAssessment_HiFi_1.0_Landing_LG_A2" transform="translate(-228.000000, -102.000000)">
            <g id="282165_StatisticalSignificance_C" transform="translate(228.000000, 102.000000)">
                <polygon id="Fill-1" fill="#00A0E3" points="11.2239 20.3655 10.5129 19.4275 10.5129 32.5795 16.6869 32.5795 16.6869 16.2165"></polygon>
                <polygon id="Fill-2" fill="#00A0E3" points="18.0585 15.1743 18.0585 32.5793 24.2315 32.5793 24.2315 15.1113 21.6625 17.0603 19.4355 14.1283"></polygon>
                <polygon id="Fill-3" fill="#00A0E3" points="2.9673 22.0098 2.9673 32.5798 9.1403 32.5798 9.1403 17.6218 8.9963 17.4318"></polygon>
                <polygon id="Fill-4" fill="#00A0E3" points="25.6032 14.0682 25.6032 32.5792 31.7772 32.5792 31.7772 9.3812"></polygon>
                <polygon id="Fill-5" fill="#FCB813" points="25.6032 14.0682 25.6032 32.5792 31.7772 32.5792 31.7772 9.3812"></polygon>
                <g id="Group-10" transform="translate(10.000000, 13.583900)" fill="#FCB813">
                    <polygon id="Fill-6" opacity="0.699999988" points="14.2314 1.527 14.2314 18.995 8.0584 18.995 8.0584 1.59 9.4354 0.545 11.6634 3.477"></polygon>
                    <polygon id="Fill-8" opacity="0.400000006" points="6.6865 2.6329 6.6865 18.9949 0.5125 18.9949 0.5125 5.8439 1.2245 6.7809"></polygon>
                </g>
                <polygon id="Fill-11" fill="#000000" points="0 0.0003 0 32.5843 1.702 32.5843 1.702 21.0503 8.858 15.5383 11.136 18.5393 19.525 12.1703 21.803 15.1703 31.779 7.6663 31.779 5.5353 22.131 12.7893 19.85 9.7863 11.461 16.1533 9.18 13.1493 1.702 18.9073 1.702 0.0003"></polygon>
            </g>
        </g>
    </g>
</svg>