<?xml version="1.0" encoding="UTF-8"?>
<svg width="24px" height="24px" viewBox="0 0 24 24" version="1.1" xmlns="http://www.w3.org/2000/svg" xmlns:xlink="http://www.w3.org/1999/xlink">
    <!-- Generator: Sketch 51.2 (57519) - http://www.bohemiancoding.com/sketch -->
    <title>question-icon</title>
    <desc>Created with Sketch.</desc>
    <defs>
        <path d="M1.44,21.3297854 L5.93332117,17.1696268 L22.56,17.1696268 L22.56,1.4316185 L1.44,1.4316185 L1.44,21.3297854 Z M1.2306649,3.41064901e-15 L22.7693351,2.55351296e-15 C23.1972641,3.98682147e-15 23.3524415,0.044296954 23.5088859,0.127477373 C23.6653304,0.210657793 23.7881089,0.332721678 23.8717763,0.488255539 C23.9554437,0.643789401 24,0.798063587 24,1.22350183 L24,17.3777434 C24,17.8031817 23.9554437,17.9574559 23.8717763,18.1129897 C23.7881089,18.2685236 23.6653304,18.3905875 23.5088859,18.4737679 C23.3524415,18.5569483 23.1972641,18.6012453 22.7693351,18.6012453 L6.5,18.6012453 L0.807126017,23.8720145 C0.613126559,24.0516296 0.309399619,24.0408842 0.128732909,23.8480139 C0.0459988426,23.7596914 -2.10793705e-14,23.6434831 -2.10942375e-14,23.5227919 L-1.62116364e-14,1.22350183 C-1.62640426e-14,0.798063587 0.0445562934,0.643789401 0.128223698,0.488255539 C0.211891102,0.332721678 0.334669618,0.210657793 0.491114062,0.127477373 C0.647558507,0.044296954 0.802735901,3.48880074e-15 1.2306649,3.41064901e-15 Z" id="path-1"></path>
    </defs>
    <g id="Symbols" stroke="none" stroke-width="1" fill="none" fill-rule="evenodd">
        <g id="icon/question-icon">
            <mask id="mask-2" fill="white">
                <use xlink:href="#path-1"></use>
            </mask>
            <use id="question-icon" fill="#F0AB00" fill-rule="nonzero" xlink:href="#path-1"></use>
        </g>
    </g>
</svg>