<?xml version="1.0"?>
<!--Icons from directory ""-->
<svg xmlns="http://www.w3.org/2000/svg" width="24" height="24" viewBox="0 0 24 24"><svg xmlns:xlink="http://www.w3.org/1999/xlink" width="24" height="24" id="icon-question" y="0"><defs><path d="M1.44 21.33l4.493-4.16H22.56V1.432H1.44V21.33zM1.23 0h21.54c.427 0 .582.044.739.127a.87.87 0 0 1 .363.361c.083.156.128.31.128.736v16.154c0 .425-.045.58-.128.735a.87.87 0 0 1-.363.36c-.157.084-.312.128-.74.128H6.5L.807 23.872a.482.482 0 0 1-.807-.35V1.225C0 .798.045.644.128.488a.87.87 0 0 1 .363-.36C.648.043.803 0 1.231 0z" id="icon-question-a"/></defs><use fill="#F0AB00" fill-rule="nonzero" xlink:href="#icon-question-a"/></svg></svg>
