<?xml version="1.0" encoding="UTF-8"?>
<svg width="310px" height="324px" viewBox="0 0 310 324" version="1.1" xmlns="http://www.w3.org/2000/svg" xmlns:xlink="http://www.w3.org/1999/xlink">
    <!-- Generator: Sketch 52.5 (67469) - http://www.bohemiancoding.com/sketch -->
    <title>Animation</title>
    <desc>Created with Sketch.</desc>
    <defs>
        <polygon id="path-1" points="0.9788 0.0001 250.9788 0.0001 250.9788 324 0.9788 324"></polygon>
        <polygon id="path-3" points="0 324 309.979 324 309.979 0 0 0"></polygon>
    </defs>
    <g id="HiFi-(US)" stroke="none" stroke-width="1" fill="none" fill-rule="evenodd">
        <g id="InvoicePainpointAssessment_HiFi_1.0_Landing_LG_A2" transform="translate(-1005.000000, -227.000000)">
            <g id="Page" transform="translate(226.000000, 121.000000)">
                <g id="IntroModule">
                    <g id="RightContent" transform="translate(742.000000, 46.000000)">
                        <g id="Animation" transform="translate(37.000000, 60.000000)">
                            <polygon id="Fill-1" fill="#F2F2F2" points="63.479 320.5 306.479 320.5 306.479 3.5 63.479 3.5"></polygon>
                            <g id="Group-60">
                                <g id="Group-4" transform="translate(59.000000, 0.000000)">
                                    <mask id="mask-2" fill="white">
                                        <use xlink:href="#path-1"></use>
                                    </mask>
                                    <g id="Clip-3"></g>
                                    <path d="M248.9788,0.0001 L2.9788,0.0001 C1.8738,0.0001 0.9788,0.8961 0.9788,2.0001 L0.9788,322.0001 C0.9788,323.1041 1.8738,324.0001 2.9788,324.0001 L248.9788,324.0001 C250.0828,324.0001 250.9788,323.1041 250.9788,322.0001 L250.9788,2.0001 C250.9788,0.8961 250.0828,0.0001 248.9788,0.0001 Z M7.9788,317.0001 L243.9788,317.0001 L243.9788,7.0001 L7.9788,7.0001 L7.9788,317.0001 Z" id="Fill-2" fill="#000000" mask="url(#mask-2)"></path>
                                </g>
                                <path d="M93.885,39.3058 L219.885,39.3058" id="Stroke-5" stroke="#000000" stroke-width="7"></path>
                                <path d="M93.885,54.3058 L219.885,54.3058" id="Stroke-7" stroke="#000000" stroke-width="7"></path>
                                <path d="M262.6487,56.548 C263.6507,56.336 264.3547,55.978 264.7627,55.473 C265.1707,54.969 265.3757,54.306 265.3757,53.484 C265.3757,52.78 265.1777,52.2 264.7827,51.74 C264.3877,51.283 263.6757,50.875 262.6487,50.519 L262.6487,56.548 Z M255.8627,39.631 C255.8627,40.427 256.0667,41.033 256.4747,41.452 C256.8827,41.87 257.5277,42.232 258.4097,42.537 L258.4097,36.666 C257.5547,36.853 256.9157,37.209 256.4947,37.74 C256.0727,38.272 255.8627,38.902 255.8627,39.631 Z M247.4447,55.254 L252.8187,51.811 C253.2497,52.356 253.6637,52.866 254.0597,53.344 C254.4557,53.82 254.8767,54.265 255.3227,54.677 C255.7677,55.087 256.2367,55.443 256.7307,55.741 C257.2247,56.041 257.7847,56.269 258.4097,56.429 L258.4097,49.423 C257.0447,49.117 255.7277,48.757 254.4607,48.339 C253.1947,47.92 252.0667,47.37 251.0787,46.686 C250.0897,46.003 249.2957,45.153 248.6987,44.139 C248.1007,43.123 247.8027,41.866 247.8027,40.367 C247.8027,38.987 248.0487,37.746 248.5397,36.646 C249.0317,35.544 249.7307,34.599 250.6357,33.809 C251.5397,33.022 252.6267,32.388 253.8957,31.91 C255.1637,31.433 256.5887,31.127 258.1707,30.993 L258.1707,28.227 L262.8277,28.227 L262.8277,31.112 C264.0477,31.273 265.1367,31.525 266.0947,31.869 C267.0527,32.216 267.9077,32.63 268.6597,33.113 C269.4107,33.598 270.0857,34.139 270.6817,34.736 C271.2767,35.333 271.8377,35.962 272.3627,36.627 L269.3367,38.632 L266.5367,40.486 C266.0067,39.785 265.4437,39.127 264.8467,38.518 C264.2507,37.906 263.5177,37.422 262.6487,37.064 L262.6487,43.552 C264.2537,43.87 265.7187,44.262 267.0407,44.725 C268.3617,45.191 269.4947,45.776 270.4407,46.477 C271.3857,47.18 272.1207,48.043 272.6467,49.065 C273.1727,50.086 273.4357,51.308 273.4357,52.727 C273.4357,53.841 273.2467,54.919 272.8707,55.961 C272.4927,57.003 271.8877,57.938 271.0557,58.767 C270.2227,59.595 269.1307,60.296 267.7797,60.866 C266.4277,61.437 264.7767,61.814 262.8277,62 L262.8277,65.384 L258.1707,65.384 L258.1707,62 C256.8047,61.867 255.5717,61.607 254.4707,61.215 C253.3687,60.823 252.4027,60.335 251.5747,59.751 C250.7457,59.168 249.9927,58.496 249.3157,57.731 C248.6387,56.968 248.0157,56.144 247.4447,55.254 Z" id="Fill-9" fill="#000000"></path>
                                <path d="M93.885,113.0333 L219.885,113.0333" id="Stroke-11" stroke="#000000" stroke-width="7"></path>
                                <path d="M93.885,128.0333 L219.885,128.0333" id="Stroke-13" stroke="#000000" stroke-width="7"></path>
                                <path d="M262.6487,130.2755 C263.6507,130.0635 264.3547,129.7055 264.7627,129.2005 C265.1707,128.6965 265.3757,128.0345 265.3757,127.2115 C265.3757,126.5075 265.1777,125.9275 264.7827,125.4685 C264.3877,125.0105 263.6757,124.6025 262.6487,124.2465 L262.6487,130.2755 Z M255.8627,113.3585 C255.8627,114.1545 256.0667,114.7615 256.4747,115.1795 C256.8827,115.5975 257.5277,115.9595 258.4097,116.2645 L258.4097,110.3935 C257.5547,110.5805 256.9157,110.9365 256.4947,111.4675 C256.0727,111.9995 255.8627,112.6295 255.8627,113.3585 Z M247.4447,128.9815 L252.8187,125.5385 C253.2497,126.0845 253.6637,126.5935 254.0597,127.0725 C254.4557,127.5475 254.8767,127.9935 255.3227,128.4055 C255.7677,128.8155 256.2367,129.1705 256.7307,129.4695 C257.2247,129.7685 257.7847,129.9965 258.4097,130.1565 L258.4097,123.1515 C257.0447,122.8455 255.7277,122.4845 254.4607,122.0665 C253.1947,121.6475 252.0667,121.0985 251.0787,120.4135 C250.0897,119.7305 249.2957,118.8805 248.6987,117.8665 C248.1007,116.8515 247.8027,115.5935 247.8027,114.0945 C247.8027,112.7145 248.0487,111.4735 248.5397,110.3735 C249.0317,109.2715 249.7307,108.3265 250.6357,107.5375 C251.5397,106.7495 252.6267,106.1155 253.8957,105.6375 C255.1637,105.1605 256.5887,104.8545 258.1707,104.7205 L258.1707,101.9555 L262.8277,101.9555 L262.8277,104.8395 C264.0477,105.0005 265.1367,105.2525 266.0947,105.5965 C267.0527,105.9435 267.9077,106.3575 268.6597,106.8415 C269.4107,107.3255 270.0857,107.8675 270.6817,108.4635 C271.2767,109.0605 271.8377,109.6905 272.3627,110.3545 L269.3367,112.3595 L266.5367,114.2135 C266.0067,113.5125 265.4437,112.8545 264.8467,112.2455 C264.2507,111.6335 263.5177,111.1505 262.6487,110.7915 L262.6487,117.2795 C264.2537,117.5975 265.7187,117.9895 267.0407,118.4535 C268.3617,118.9185 269.4947,119.5035 270.4407,120.2045 C271.3857,120.9075 272.1207,121.7705 272.6467,122.7925 C273.1727,123.8135 273.4357,125.0355 273.4357,126.4555 C273.4357,127.5685 273.2467,128.6465 272.8707,129.6885 C272.4927,130.7305 271.8877,131.6665 271.0557,132.4945 C270.2227,133.3225 269.1307,134.0235 267.7797,134.5935 C266.4277,135.1645 264.7767,135.5415 262.8277,135.7285 L262.8277,139.1115 L258.1707,139.1115 L258.1707,135.7285 C256.8047,135.5945 255.5717,135.3345 254.4707,134.9425 C253.3687,134.5505 252.4027,134.0625 251.5747,133.4785 C250.7457,132.8965 249.9927,132.2235 249.3157,131.4585 C248.6387,130.6955 248.0157,129.8715 247.4447,128.9815 Z" id="Fill-15" fill="#000000"></path>
                                <path d="M93.885,186.7609 L219.885,186.7609" id="Stroke-17" stroke="#000000" stroke-width="7"></path>
                                <path d="M93.885,201.7609 L219.885,201.7609" id="Stroke-19" stroke="#000000" stroke-width="7"></path>
                                <path d="M262.6487,204.0031 C263.6507,203.7921 264.3547,203.4331 264.7627,202.9291 C265.1707,202.4241 265.3757,201.7621 265.3757,200.9401 C265.3757,200.2351 265.1777,199.6551 264.7827,199.1961 C264.3877,198.7381 263.6757,198.3311 262.6487,197.9741 L262.6487,204.0031 Z M255.8627,187.0871 C255.8627,187.8821 256.0667,188.4891 256.4747,188.9071 C256.8827,189.3261 257.5277,189.6871 258.4097,189.9921 L258.4097,184.1211 C257.5547,184.3081 256.9157,184.6641 256.4947,185.1951 C256.0727,185.7271 255.8627,186.3571 255.8627,187.0871 Z M247.4447,202.7091 L252.8187,199.2661 C253.2497,199.8121 253.6637,200.3221 254.0597,200.8001 C254.4557,201.2751 254.8767,201.7211 255.3227,202.1331 C255.7677,202.5431 256.2367,202.8981 256.7307,203.1971 C257.2247,203.4961 257.7847,203.7241 258.4097,203.8841 L258.4097,196.8791 C257.0447,196.5731 255.7277,196.2121 254.4607,195.7941 C253.1947,195.3761 252.0667,194.8261 251.0787,194.1411 C250.0897,193.4581 249.2957,192.6091 248.6987,191.5941 C248.1007,190.5791 247.8027,189.3211 247.8027,187.8221 C247.8027,186.4421 248.0487,185.2021 248.5397,184.1011 C249.0317,182.9991 249.7307,182.0541 250.6357,181.2651 C251.5397,180.4771 252.6267,179.8441 253.8957,179.3651 C255.1637,178.8881 256.5887,178.5821 258.1707,178.4491 L258.1707,175.6831 L262.8277,175.6831 L262.8277,178.5671 C264.0477,178.7281 265.1367,178.9801 266.0947,179.3241 C267.0527,179.6711 267.9077,180.0851 268.6597,180.5691 C269.4107,181.0531 270.0857,181.5951 270.6817,182.1911 C271.2767,182.7881 271.8377,183.4181 272.3627,184.0821 L269.3367,186.0871 L266.5367,187.9411 C266.0067,187.2401 265.4437,186.5821 264.8467,185.9731 C264.2507,185.3611 263.5177,184.8781 262.6487,184.5191 L262.6487,191.0081 C264.2537,191.3251 265.7187,191.7171 267.0407,192.1811 C268.3617,192.6461 269.4947,193.2311 270.4407,193.9321 C271.3857,194.6351 272.1207,195.4991 272.6467,196.5201 C273.1727,197.5411 273.4357,198.7641 273.4357,200.1831 C273.4357,201.2961 273.2467,202.3751 272.8707,203.4161 C272.4927,204.4581 271.8877,205.3941 271.0557,206.2221 C270.2227,207.0511 269.1307,207.7521 267.7797,208.3211 C266.4277,208.8921 264.7767,209.2701 262.8277,209.4561 L262.8277,212.8401 L258.1707,212.8401 L258.1707,209.4561 C256.8047,209.3221 255.5717,209.0631 254.4707,208.6701 C253.3687,208.2781 252.4027,207.7911 251.5747,207.2061 C250.7457,206.6241 249.9927,205.9511 249.3157,205.1871 C248.6387,204.4231 248.0157,203.5991 247.4447,202.7091 Z" id="Fill-21" fill="#000000"></path>
                                <path d="M284.885,267.9884 C284.885,281.7964 273.692,292.9884 259.885,292.9884 C246.078,292.9884 234.885,281.7964 234.885,267.9884 C234.885,254.1814 246.078,242.9884 259.885,242.9884 C273.692,242.9884 284.885,254.1814 284.885,267.9884" id="Fill-23" fill="#F0AB00"></path>
                                <polyline id="Stroke-25" stroke="#F2F2F2" stroke-width="6.25" stroke-linecap="round" points="246.0456 271.0812 253.6676 278.7032 272.8646 259.5072"></polyline>
                                <path d="M213.4206,258.59 C210.0496,265.721 200.6216,268.957 193.4656,270.089 C188.2516,270.913 181.8886,271.392 176.7456,269.972 C171.9616,268.651 169.2236,265.055 167.1236,260.779 C166.0486,258.593 162.8336,258.403 161.2326,260.021 C158.8266,262.455 155.8526,264.782 152.6066,266.878 C155.8086,260.348 151.2346,254.156 144.4736,252.58 C136.5486,250.734 130.4026,255.199 124.4426,259.741 C115.9856,266.187 109.0186,271.638 97.6346,270.394 C92.8436,269.869 92.8806,277.373 97.6346,277.894 C105.0736,278.707 112.7616,277.253 119.0776,273.12 C124.2106,269.761 128.7046,265.5 133.8506,262.151 C136.0966,260.688 138.2656,259.521 141.0246,259.648 C144.1406,259.791 147.3566,261.175 145.4046,264.401 C142.6596,268.939 137.5216,272.772 133.0746,275.498 C129.4296,277.733 131.8096,283.348 135.9636,282.352 C144.9876,280.188 155.4326,274.86 163.0256,268.526 C169.8296,277.893 180.9166,279.13 192.7306,277.704 C202.5516,276.52 215.2926,272.115 219.8966,262.375 C221.9486,258.035 215.4846,254.224 213.4206,258.59" id="Fill-27" fill="#000000"></path>
                                <mask id="mask-4" fill="white">
                                    <use xlink:href="#path-3"></use>
                                </mask>
                                <g id="Clip-30"></g>
                                <polygon id="Fill-29" fill="#FFFFFF" mask="url(#mask-4)" points="3.5 320.5 116.385 320.5 116.385 152.698 3.5 152.698"></polygon>
                                <path d="M117.885,149.1984 L2,149.1984 C0.895,149.1984 0,150.0944 0,151.1984 L0,322.0004 C0,323.1044 0.895,324.0004 2,324.0004 L117.885,324.0004 C118.989,324.0004 119.885,323.1044 119.885,322.0004 L119.885,151.1984 C119.885,150.0944 118.989,149.1984 117.885,149.1984 Z M7,317.0004 L112.885,317.0004 L112.885,156.1984 L7,156.1984 L7,317.0004 Z" id="Fill-31" fill="#000000" mask="url(#mask-4)"></path>
                                <polygon id="Fill-32" fill="#FFFFFF" mask="url(#mask-4)" points="14.385 202.748 105.499 202.748 105.499 163.654 14.385 163.654"></polygon>
                                <path d="M106.508,161.6456 L13.377,161.6456 C12.824,161.6456 12.377,162.0936 12.377,162.6456 L12.377,203.7566 C12.377,204.3086 12.824,204.7566 13.377,204.7566 L106.508,204.7566 C107.061,204.7566 107.508,204.3086 107.508,203.7566 L107.508,162.6456 C107.508,162.0936 107.061,161.6456 106.508,161.6456 Z M16.394,200.7386 L103.49,200.7386 L103.49,165.6646 L16.394,165.6646 L16.394,200.7386 Z" id="Fill-33" fill="#000000" mask="url(#mask-4)"></path>
                                <polygon id="Fill-34" fill="#FFFFFF" mask="url(#mask-4)" points="14.98 232.906 29.989 232.906 29.989 218.961 14.98 218.961"></polygon>
                                <path d="M30.9978,216.9523 L13.9718,216.9523 C13.4188,216.9523 12.9718,217.4003 12.9718,217.9523 L12.9718,233.9153 C12.9718,234.4683 13.4188,234.9153 13.9718,234.9153 L30.9978,234.9153 C31.5498,234.9153 31.9978,234.4683 31.9978,233.9153 L31.9978,217.9523 C31.9978,217.4003 31.5498,216.9523 30.9978,216.9523 Z M16.9898,230.8973 L27.9798,230.8973 L27.9798,220.9703 L16.9898,220.9703 L16.9898,230.8973 Z" id="Fill-35" fill="#000000" mask="url(#mask-4)"></path>
                                <polygon id="Fill-36" fill="#FFFFFF" mask="url(#mask-4)" points="40.348 232.906 55.357 232.906 55.357 218.961 40.348 218.961"></polygon>
                                <path d="M56.366,216.9523 L39.34,216.9523 C38.787,216.9523 38.34,217.4003 38.34,217.9523 L38.34,233.9153 C38.34,234.4683 38.787,234.9153 39.34,234.9153 L56.366,234.9153 C56.918,234.9153 57.366,234.4683 57.366,233.9153 L57.366,217.9523 C57.366,217.4003 56.918,216.9523 56.366,216.9523 Z M42.358,230.8973 L53.348,230.8973 L53.348,220.9703 L42.358,220.9703 L42.358,230.8973 Z" id="Fill-37" fill="#000000" mask="url(#mask-4)"></path>
                                <polygon id="Fill-38" fill="#FFFFFF" mask="url(#mask-4)" points="65.717 232.906 80.726 232.906 80.726 218.961 65.717 218.961"></polygon>
                                <path d="M81.7346,216.9523 L64.7086,216.9523 C64.1556,216.9523 63.7086,217.4003 63.7086,217.9523 L63.7086,233.9153 C63.7086,234.4683 64.1556,234.9153 64.7086,234.9153 L81.7346,234.9153 C82.2866,234.9153 82.7346,234.4683 82.7346,233.9153 L82.7346,217.9523 C82.7346,217.4003 82.2866,216.9523 81.7346,216.9523 Z M67.7266,230.8973 L78.7166,230.8973 L78.7166,220.9703 L67.7266,220.9703 L67.7266,230.8973 Z" id="Fill-39" fill="#000000" mask="url(#mask-4)"></path>
                                <polygon id="Fill-40" fill="#FFFFFF" mask="url(#mask-4)" points="14.98 258.054 29.989 258.054 29.989 244.109 14.98 244.109"></polygon>
                                <path d="M30.9978,242.1007 L13.9718,242.1007 C13.4188,242.1007 12.9718,242.5477 12.9718,243.1007 L12.9718,259.0637 C12.9718,259.6157 13.4188,260.0637 13.9718,260.0637 L30.9978,260.0637 C31.5498,260.0637 31.9978,259.6157 31.9978,259.0637 L31.9978,243.1007 C31.9978,242.5477 31.5498,242.1007 30.9978,242.1007 Z M16.9898,256.0447 L27.9798,256.0447 L27.9798,246.1177 L16.9898,246.1177 L16.9898,256.0447 Z" id="Fill-41" fill="#000000" mask="url(#mask-4)"></path>
                                <polygon id="Fill-42" fill="#FFFFFF" mask="url(#mask-4)" points="40.348 258.054 55.357 258.054 55.357 244.109 40.348 244.109"></polygon>
                                <path d="M56.366,242.1007 L39.34,242.1007 C38.787,242.1007 38.34,242.5477 38.34,243.1007 L38.34,259.0637 C38.34,259.6157 38.787,260.0637 39.34,260.0637 L56.366,260.0637 C56.918,260.0637 57.366,259.6157 57.366,259.0637 L57.366,243.1007 C57.366,242.5477 56.918,242.1007 56.366,242.1007 Z M42.358,256.0447 L53.348,256.0447 L53.348,246.1177 L42.358,246.1177 L42.358,256.0447 Z" id="Fill-43" fill="#000000" mask="url(#mask-4)"></path>
                                <polygon id="Fill-44" fill="#FFFFFF" mask="url(#mask-4)" points="65.717 258.054 80.726 258.054 80.726 244.109 65.717 244.109"></polygon>
                                <path d="M81.7346,242.1007 L64.7086,242.1007 C64.1556,242.1007 63.7086,242.5477 63.7086,243.1007 L63.7086,259.0637 C63.7086,259.6157 64.1556,260.0637 64.7086,260.0637 L81.7346,260.0637 C82.2866,260.0637 82.7346,259.6157 82.7346,259.0637 L82.7346,243.1007 C82.7346,242.5477 82.2866,242.1007 81.7346,242.1007 Z M67.7266,256.0447 L78.7166,256.0447 L78.7166,246.1177 L67.7266,246.1177 L67.7266,256.0447 Z" id="Fill-45" fill="#000000" mask="url(#mask-4)"></path>
                                <polygon id="Fill-46" fill="#FFFFFF" mask="url(#mask-4)" points="14.98 283.202 29.989 283.202 29.989 269.257 14.98 269.257"></polygon>
                                <path d="M30.9978,267.2482 L13.9718,267.2482 C13.4188,267.2482 12.9718,267.6962 12.9718,268.2482 L12.9718,284.2112 C12.9718,284.7642 13.4188,285.2112 13.9718,285.2112 L30.9978,285.2112 C31.5498,285.2112 31.9978,284.7642 31.9978,284.2112 L31.9978,268.2482 C31.9978,267.6962 31.5498,267.2482 30.9978,267.2482 Z M16.9898,281.1932 L27.9798,281.1932 L27.9798,271.2662 L16.9898,271.2662 L16.9898,281.1932 Z" id="Fill-47" fill="#000000" mask="url(#mask-4)"></path>
                                <polygon id="Fill-48" fill="#FFFFFF" mask="url(#mask-4)" points="40.348 283.202 55.357 283.202 55.357 269.257 40.348 269.257"></polygon>
                                <path d="M56.366,267.2482 L39.34,267.2482 C38.787,267.2482 38.34,267.6962 38.34,268.2482 L38.34,284.2112 C38.34,284.7642 38.787,285.2112 39.34,285.2112 L56.366,285.2112 C56.918,285.2112 57.366,284.7642 57.366,284.2112 L57.366,268.2482 C57.366,267.6962 56.918,267.2482 56.366,267.2482 Z M42.358,281.1932 L53.348,281.1932 L53.348,271.2662 L42.358,271.2662 L42.358,281.1932 Z" id="Fill-49" fill="#000000" mask="url(#mask-4)"></path>
                                <polygon id="Fill-50" fill="#FFFFFF" mask="url(#mask-4)" points="65.717 283.202 80.726 283.202 80.726 269.257 65.717 269.257"></polygon>
                                <path d="M81.7346,267.2482 L64.7086,267.2482 C64.1556,267.2482 63.7086,267.6962 63.7086,268.2482 L63.7086,284.2112 C63.7086,284.7642 64.1556,285.2112 64.7086,285.2112 L81.7346,285.2112 C82.2866,285.2112 82.7346,284.7642 82.7346,284.2112 L82.7346,268.2482 C82.7346,267.6962 82.2866,267.2482 81.7346,267.2482 Z M67.7266,281.1932 L78.7166,281.1932 L78.7166,271.2662 L67.7266,271.2662 L67.7266,281.1932 Z" id="Fill-51" fill="#000000" mask="url(#mask-4)"></path>
                                <polygon id="Fill-52" fill="#FFFFFF" mask="url(#mask-4)" points="65.717 308.35 80.726 308.35 80.726 294.405 65.717 294.405"></polygon>
                                <path d="M81.7346,292.3966 L64.7086,292.3966 C64.1556,292.3966 63.7086,292.8436 63.7086,293.3966 L63.7086,309.3596 C63.7086,309.9126 64.1556,310.3596 64.7086,310.3596 L81.7346,310.3596 C82.2866,310.3596 82.7346,309.9126 82.7346,309.3596 L82.7346,293.3966 C82.7346,292.8436 82.2866,292.3966 81.7346,292.3966 Z M67.7266,306.3416 L78.7166,306.3416 L78.7166,296.4136 L67.7266,296.4136 L67.7266,306.3416 Z" id="Fill-53" fill="#000000" mask="url(#mask-4)"></path>
                                <polygon id="Fill-54" fill="#FFFFFF" mask="url(#mask-4)" points="14.98 308.35 55.357 308.35 55.357 294.405 14.98 294.405"></polygon>
                                <path d="M56.366,292.3966 L13.971,292.3966 C13.419,292.3966 12.971,292.8436 12.971,293.3966 L12.971,309.3596 C12.971,309.9126 13.419,310.3596 13.971,310.3596 L56.366,310.3596 C56.918,310.3596 57.366,309.9126 57.366,309.3596 L57.366,293.3966 C57.366,292.8436 56.918,292.3966 56.366,292.3966 Z M16.99,306.3416 L53.348,306.3416 L53.348,296.4136 L16.99,296.4136 L16.99,306.3416 Z" id="Fill-55" fill="#000000" mask="url(#mask-4)"></path>
                                <polygon id="Fill-56" fill="#FFFFFF" mask="url(#mask-4)" points="91.085 258.055 106.094 258.055 106.094 218.961 91.085 218.961"></polygon>
                                <path d="M107.1028,216.9523 L90.0768,216.9523 C89.5238,216.9523 89.0768,217.4003 89.0768,217.9523 L89.0768,259.0633 C89.0768,259.6153 89.5238,260.0633 90.0768,260.0633 L107.1028,260.0633 C107.6548,260.0633 108.1028,259.6153 108.1028,259.0633 L108.1028,217.9523 C108.1028,217.4003 107.6548,216.9523 107.1028,216.9523 Z M93.0948,256.0453 L104.0848,256.0453 L104.0848,220.9713 L93.0948,220.9713 L93.0948,256.0453 Z" id="Fill-57" fill="#000000" mask="url(#mask-4)"></path>
                                <polygon id="Fill-58" fill="#FFFFFF" mask="url(#mask-4)" points="91.085 308.351 106.094 308.351 106.094 269.257 91.085 269.257"></polygon>
                                <path d="M107.1028,267.2482 L90.0768,267.2482 C89.5238,267.2482 89.0768,267.6962 89.0768,268.2482 L89.0768,309.3592 C89.0768,309.9122 89.5238,310.3592 90.0768,310.3592 L107.1028,310.3592 C107.6548,310.3592 108.1028,309.9122 108.1028,309.3592 L108.1028,268.2482 C108.1028,267.6962 107.6548,267.2482 107.1028,267.2482 Z M93.0948,306.3422 L104.0848,306.3422 L104.0848,271.2672 L93.0948,271.2672 L93.0948,306.3422 Z" id="Fill-59" fill="#000000" mask="url(#mask-4)"></path>
                            </g>
                        </g>
                    </g>
                </g>
            </g>
        </g>
    </g>
</svg>